PathFileType	4	(X/Y/Z)	C:\Users\WrightLab\Desktop\Jo\P5V124.trc
DataRate	CameraRate	NumFrames	NumMarkers	Units	OrigDataRate	OrigDataStartFrame	OrigNumFrames
100.00	100.00	       9	19	mm	100.00	313	       624
Frame#	Time	Headset_Front			Headset_Back			Headset_Left			Headset_Right			Left_Shoulder			Right_Shoulder			Sternum			C7			Left Elbow			Right Elbow			Left Wrist			Right Wrist			Left ASIS			Right ASIS			S2			Left Knee			Right Knee			Left Ankle			Right Ankle			
		X1	Y1	Z1	X2	Y2	Z2	X3	Y3	Z3	X4	Y4	Z4	X5	Y5	Z5	X6	Y6	Z6	X7	Y7	Z7	X8	Y8	Z8	X9	Y9	Z9	X10	Y10	Z10	X11	Y11	Z11	X12	Y12	Z12	X13	Y13	Z13	X14	Y14	Z14	X15	Y15	Z15	X16	Y16	Z16	X17	Y17	Z17	X18	Y18	Z18	X19	Y19	Z19	

313	3.120	-205.97386	1607.65869	451.01245										107.28278	1496.29858	489.42468	-117.38015	1466.95752	145.81029	-89.18024	1334.30981	360.31339	92.60800	1528.85461	245.65205	158.04277	1214.94775	553.87885	-85.43755	1207.28027	11.31033	92.26338	986.68817	632.32086	-218.11131	1013.55634	95.81691	-22.36720	937.03119	470.91718	-157.84061	961.76837	223.79900	198.63783	980.81000	245.57002	95.91463	495.88654	439.02148	-155.11191	522.51398	274.33765	410.43887	198.41615	260.45670	-104.36403	103.80911	300.92212	
314	3.130	-213.08751	1609.55920	454.73233										99.01417	1497.62659	492.96060	-125.08610	1468.76709	149.04105	-97.71557	1335.73218	363.13724	85.53586	1529.49023	250.54834	151.15619	1215.30957	555.97260	-93.33385	1208.21643	15.64572	85.05598	986.91919	633.78754	-226.03413	1014.44794	100.38615	-33.15320	938.71582	474.01111	-165.81264	963.83026	226.99091	191.24359	982.01056	249.74910	78.58582	494.39688	451.63565	-159.74727	523.03394	274.14029	398.08832	206.14859	268.33801	-104.44152	103.41880	300.93851	
315	3.140	-218.72739	1610.91052	457.92291	-24.51603	1692.39673	458.67532							89.83052	1498.27197	496.62302	-132.71455	1470.27979	151.81824	-106.38658	1336.47668	366.03745	77.64456	1530.46143	252.72218	144.29787	1216.27124	558.16699	-100.95597	1208.35535	20.32447	77.62553	987.46637	635.67566	-233.41895	1014.75006	105.44556	-43.21820	940.10004	478.10526	-172.09619	964.64648	229.31905	184.50250	983.49542	254.30836	60.47543	493.88190	463.63626	-164.13036	522.48486	273.56607	385.47577	213.88385	275.50790	-104.74200	103.08252	300.71289	
316	3.150	-226.32671	1612.93933	461.95425	-30.56775	1693.56677	461.44302							81.45171	1498.79614	500.24637	-140.67145	1471.39502	155.13513	-113.95454	1337.25317	368.59946	69.77549	1531.33459	256.81131	137.44974	1216.55957	560.69055	-108.69436	1209.16736	24.46161	70.65031	987.19287	636.60535	-239.43990	1015.69373	110.89187	-52.64438	941.45947	481.36786	-178.39098	965.16949	232.02437	177.30524	984.41455	259.27798	43.53455	493.31339	476.55145	-168.87825	522.10394	273.05545	371.92599	222.70265	284.39581	-105.10130	102.79456	300.44058	
317	3.160	-233.14499	1615.16321	465.73639										71.92504	1499.57361	503.88062	-148.44031	1472.43237	158.48216	-122.48094	1338.07019	371.69571	62.27665	1532.49756	260.46872	131.25146	1216.58765	563.27203	-115.89950	1209.88635	28.17968	63.15733	987.61182	638.53180	-247.42780	1016.52637	113.99854	-62.06549	942.30713	484.90607	-184.88400	966.08722	234.64059	170.91435	985.16638	263.99597	25.65705	492.22058	487.89615	-172.90778	521.49316	271.94846	358.12576	231.76791	292.98273	-105.28554	102.73960	300.35022	
318	3.170	-240.61311	1617.33228	469.92249										64.10161	1499.46387	507.27121	-156.23636	1473.09619	162.09087	-130.22102	1338.25366	374.85959	54.53782	1533.37878	264.57623	124.43722	1216.58301	565.44922	-122.75608	1210.16187	31.45976	55.97076	986.92401	640.21161	-254.13182	1017.29926	119.89323	-70.66129	943.12537	488.37906	-191.81908	966.84113	237.30949	163.68202	985.70789	268.48499	9.08931	492.23309	499.41150	-177.01624	520.92792	270.41870	344.68707	240.81068	301.41879	-105.78411	103.12366	300.19904	
319	3.180	-246.61435	1619.01172	473.64099										56.65677	1499.61682	510.57379	-163.74409	1473.66248	165.41501	-138.19968	1339.14294	378.38522	46.66692	1534.08472	267.11942	116.83113	1216.36633	567.83582	-129.93245	1210.68835	34.69440	48.45896	986.74304	642.10345	-261.52219	1018.20721	124.44238	-78.59592	943.66736	492.18399	-197.69954	966.88312	239.35295	157.32938	986.15753	272.81870	-7.70935	492.82114	509.16513	-181.08566	520.19232	269.08255	330.42862	249.29784	310.28644	-105.80833	103.12363	300.22433	
320	3.190	-253.89342	1620.81177	477.90564										48.57083	1499.94214	513.79541	-171.29710	1473.92566	169.21797	-145.35489	1339.44360	381.49756	38.99904	1534.95752	270.81198	109.70985	1216.74219	570.60168	-137.19847	1211.28333	38.96478	41.42270	986.72437	643.78284	-269.05664	1018.84448	127.54538	-86.29698	943.85138	496.35867	-204.75536	967.91296	242.24112	149.35416	987.20886	277.28973	-24.00736	494.26251	519.35590	-184.54900	519.09290	266.52368	315.66724	257.57367	319.52747	-105.58171	102.92310	300.33798	
321	3.200	-261.66495	1623.14050	482.42249										41.00169	1500.03394	517.86365	-178.93903	1474.31946	173.42587	-152.23726	1339.40430	385.18018	31.62888	1535.96777	274.57797	102.02956	1216.84326	573.08118	-144.79480	1211.67773	42.54966	34.04048	986.66156	645.84241	-275.66583	1020.20044	133.09744	-93.85544	944.45581	500.60345	-210.80544	967.63263	244.59404	142.13843	987.51154	281.97852	-39.48159	496.42627	528.55042	-188.26558	518.29211	264.33087	300.44736	265.04166	328.35175	-105.61642	103.19884	300.33960	
